HIERARCHY
ROOT Hips
{
	OFFSET -14.64140 90.27770 -84.91600
	CHANNELS 6 Xposition Yposition Zposition Zrotation Xrotation Yrotation
	JOINT Spine
	{
		OFFSET 0.00000 13.20850 -1.60436
		CHANNELS 3 Zrotation Xrotation Yrotation
		JOINT Spine1
		{
			OFFSET 0.00000 8.61716 0.00000
			CHANNELS 3 Zrotation Xrotation Yrotation
			JOINT Spine2
			{
				OFFSET 0.00000 8.61717 0.00000
				CHANNELS 3 Zrotation Xrotation Yrotation
				JOINT Spine3
				{
					OFFSET 0.00000 8.61717 0.00000
					CHANNELS 3 Zrotation Xrotation Yrotation
					JOINT Neck
					{
						OFFSET 0.00000 11.07920 1.10792
						CHANNELS 3 Zrotation Xrotation Yrotation
						JOINT Neck1
						{
							OFFSET 0.00000 7.08032 0.00000
							CHANNELS 3 Zrotation Xrotation Yrotation
							JOINT Head
							{
								OFFSET 0.00000 7.08031 0.00000
								CHANNELS 3 Zrotation Xrotation Yrotation
								End site
								{
									OFFSET 0.00000 0.00000 0.00000
								}
							}
						}
					}
					JOINT RightShoulder
					{
						OFFSET -0.01000 7.91373 5.19711
						CHANNELS 3 Zrotation Xrotation Yrotation
						JOINT RightArm
						{
							OFFSET -18.41580 0.00000 0.00000
							CHANNELS 3 Zrotation Xrotation Yrotation
							JOINT RightForeArm
							{
								OFFSET -29.11090 0.00000 0.00000
								CHANNELS 3 Zrotation Xrotation Yrotation
								JOINT RightHand
								{
									OFFSET -24.65040 0.00000 0.00000
									CHANNELS 3 Zrotation Xrotation Yrotation
									JOINT RightHandThumb1
									{
										OFFSET -5.35114 -0.85590 3.97906
										CHANNELS 3 Zrotation Xrotation Yrotation
										JOINT RightHandThumb2
										{
											OFFSET -4.52789 0.00000 0.00000
											CHANNELS 3 Zrotation Xrotation Yrotation
											JOINT RightHandThumb3
											{
												OFFSET -2.46976 0.00000 0.00000
												CHANNELS 3 Zrotation Xrotation Yrotation
												End site
												{
													OFFSET 0.00000 0.00000 0.00000
												}
											}
										}
									}
									JOINT RightHandIndex1
									{
										OFFSET -14.26970 0.00000 2.88139
										CHANNELS 3 Zrotation Xrotation Yrotation
										JOINT RightHandIndex2
										{
											OFFSET -5.48836 0.00000 0.00000
											CHANNELS 3 Zrotation Xrotation Yrotation
											JOINT RightHandIndex3
											{
												OFFSET -3.01859 0.00000 0.00000
												CHANNELS 3 Zrotation Xrotation Yrotation
												End site
												{
													OFFSET 0.00000 0.00000 0.00000
												}
											}
										}
									}
									JOINT RightHandMiddle1
									{
										OFFSET -14.26970 0.00000 -0.09147
										CHANNELS 3 Zrotation Xrotation Yrotation
										JOINT RightHandMiddle2
										{
											OFFSET -6.17441 0.00000 0.00000
											CHANNELS 3 Zrotation Xrotation Yrotation
											JOINT RightHandMiddle3
											{
												OFFSET -3.56743 0.00000 0.00000
												CHANNELS 3 Zrotation Xrotation Yrotation
												End site
												{
													OFFSET 0.00000 0.00000 0.00000
												}
											}
										}
									}
									JOINT RightHandRing1
									{
										OFFSET -12.69180 0.00000 -3.06433
										CHANNELS 3 Zrotation Xrotation Yrotation
										JOINT RightHandRing2
										{
											OFFSET -5.62556 0.00000 0.00000
											CHANNELS 3 Zrotation Xrotation Yrotation
											JOINT RightHandRing3
											{
												OFFSET -3.56744 0.00000 0.00000
												CHANNELS 3 Zrotation Xrotation Yrotation
												End site
												{
													OFFSET 0.00000 0.00000 0.00000
												}
											}
										}
									}
									JOINT RightHandPinky1
									{
										OFFSET -11.11390 0.00000 -6.03719
										CHANNELS 3 Zrotation Xrotation Yrotation
										JOINT RightHandPinky2
										{
											OFFSET -4.52789 0.00000 0.00000
											CHANNELS 3 Zrotation Xrotation Yrotation
											JOINT RightHandPinky3
											{
												OFFSET -2.46976 0.00000 0.00000
												CHANNELS 3 Zrotation Xrotation Yrotation
												End site
												{
													OFFSET 0.00000 0.00000 0.00000
												}
											}
										}
									}
								}
							}
						}
					}
					JOINT LeftShoulder
					{
						OFFSET 0.01000 7.91373 5.19711
						CHANNELS 3 Zrotation Xrotation Yrotation
						JOINT LeftArm
						{
							OFFSET 18.41580 0.00000 0.00000
							CHANNELS 3 Zrotation Xrotation Yrotation
							JOINT LeftForeArm
							{
								OFFSET 29.11090 0.00000 0.00000
								CHANNELS 3 Zrotation Xrotation Yrotation
								JOINT LeftHand
								{
									OFFSET 24.65040 0.00000 0.00000
									CHANNELS 3 Zrotation Xrotation Yrotation
									JOINT LeftHandThumb1
									{
										OFFSET 5.35114 -0.85590 3.97906
										CHANNELS 3 Zrotation Xrotation Yrotation
										JOINT LeftHandThumb2
										{
											OFFSET 4.52789 0.00000 0.00000
											CHANNELS 3 Zrotation Xrotation Yrotation
											JOINT LeftHandThumb3
											{
												OFFSET 2.46977 0.00000 0.00000
												CHANNELS 3 Zrotation Xrotation Yrotation
												End site
												{
													OFFSET 0.00000 0.00000 0.00000
												}
											}
										}
									}
									JOINT LeftHandIndex1
									{
										OFFSET 14.26970 0.00000 2.88139
										CHANNELS 3 Zrotation Xrotation Yrotation
										JOINT LeftHandIndex2
										{
											OFFSET 5.48836 0.00000 0.00000
											CHANNELS 3 Zrotation Xrotation Yrotation
											JOINT LeftHandIndex3
											{
												OFFSET 3.01859 0.00000 0.00000
												CHANNELS 3 Zrotation Xrotation Yrotation
												End site
												{
													OFFSET 0.00000 0.00000 0.00000
												}
											}
										}
									}
									JOINT LeftHandMiddle1
									{
										OFFSET 14.26970 0.00000 -0.09147
										CHANNELS 3 Zrotation Xrotation Yrotation
										JOINT LeftHandMiddle2
										{
											OFFSET 6.17440 0.00000 0.00000
											CHANNELS 3 Zrotation Xrotation Yrotation
											JOINT LeftHandMiddle3
											{
												OFFSET 3.56744 0.00000 0.00000
												CHANNELS 3 Zrotation Xrotation Yrotation
												End site
												{
													OFFSET 0.00000 0.00000 0.00000
												}
											}
										}
									}
									JOINT LeftHandRing1
									{
										OFFSET 12.69180 0.00000 -3.06433
										CHANNELS 3 Zrotation Xrotation Yrotation
										JOINT LeftHandRing2
										{
											OFFSET 5.62556 0.00000 0.00000
											CHANNELS 3 Zrotation Xrotation Yrotation
											JOINT LeftHandRing3
											{
												OFFSET 3.56744 0.00000 0.00000
												CHANNELS 3 Zrotation Xrotation Yrotation
												End site
												{
													OFFSET 0.00000 0.00000 0.00000
												}
											}
										}
									}
									JOINT LeftHandPinky1
									{
										OFFSET 11.11390 0.00000 -6.03719
										CHANNELS 3 Zrotation Xrotation Yrotation
										JOINT LeftHandPinky2
										{
											OFFSET 4.52789 0.00000 0.00000
											CHANNELS 3 Zrotation Xrotation Yrotation
											JOINT LeftHandPinky3
											{
												OFFSET 2.46976 0.00000 0.00000
												CHANNELS 3 Zrotation Xrotation Yrotation
												End site
												{
													OFFSET 0.00000 0.00000 0.00000
												}
											}
										}
									}
								}
							}
						}
					}
					JOINT pCube4
					{
						OFFSET 0.00000 10.91090 1.10792
						CHANNELS 3 Zrotation Xrotation Yrotation
						End site
						{
							OFFSET 0.00000 0.00000 0.00000
						}
					}
				}
			}
		}
	}
	JOINT RightUpLeg
	{
		OFFSET -9.98441 0.00000 0.00000
		CHANNELS 3 Zrotation Xrotation Yrotation
		JOINT RightLeg
		{
			OFFSET 0.00000 -42.11790 0.00000
			CHANNELS 3 Zrotation Xrotation Yrotation
			JOINT RightFoot
			{
				OFFSET 0.00000 -45.00020 -0.00001
				CHANNELS 3 Zrotation Xrotation Yrotation
				JOINT RightForeFoot
				{
					OFFSET 0.00000 -3.74820 0.00000
					CHANNELS 3 Zrotation Xrotation Yrotation
					JOINT RightToeBase
					{
						OFFSET 0.00000 0.06325 14.43120
						CHANNELS 3 Zrotation Xrotation Yrotation
						End site
						{
							OFFSET 0.00000 0.00000 0.00000
						}
					}
				}
			}
		}
	}
	JOINT LeftUpLeg
	{
		OFFSET 9.98441 0.00000 0.00000
		CHANNELS 3 Zrotation Xrotation Yrotation
		JOINT LeftLeg
		{
			OFFSET 0.00000 -42.11800 0.00000
			CHANNELS 3 Zrotation Xrotation Yrotation
			JOINT LeftFoot
			{
				OFFSET 0.00000 -45.00070 0.00000
				CHANNELS 3 Zrotation Xrotation Yrotation
				JOINT LeftForeFoot
				{
					OFFSET 0.00000 -3.74824 0.00000
					CHANNELS 3 Zrotation Xrotation Yrotation
					JOINT LeftToeBase
					{
						OFFSET 0.00000 0.06325 14.43110
						CHANNELS 3 Zrotation Xrotation Yrotation
						End site
						{
							OFFSET 0.00000 0.00000 0.00000
						}
					}
				}
			}
		}
	}
}
MOTION
Frames: 4
Frame Time: 0.050000
0.030110518396822286 0.001981597192550492 0.030608491141752448 -0.03274950003844212 -0.022673113703591315 -0.009973934467126922 4.929676502081275 2.9573644662129053 -2.1724170416295077 -0.5974990948980423 3.850467637037585 0.3615850779461765 -0.6654116792890937 -1.6855413900075604 0.6180838003140715 -0.40525480710732487 -0.6118353119896959 -0.2601289388755672 0.17935542850706246 16.59096576693904 -2.9716531833218403 0.32922363070349847 -0.7155058757225861 -6.146497570703581 1.250715272646476 -18.22930773392851 -0.6350424903754663 -13.889474709827438 4.259403547079154 -17.873290909139104 82.50716823817879 -11.22162050539066 32.072738915029134 23.917040870132368 10.753177048887899 107.3947065377586 9.354887873641534 -0.2466510886777669 -0.10163667888145896 4.493925457293557 -0.15270672936046548 -1.5570688431914743 -0.019820898351118152 -0.04370186521563487 -56.22491510711897 0.0427584494481016 0.02393068035868119 -56.187584727671485 -38.7269885551973 0.018460676571631265 0.04135108480154215 0.02191519598402697 0.0019408157314489782 0.0382771716237396 0.03711200276134286 -0.0035606102612895 -0.040346732934151835 -36.68405905003543 0.025927800817655933 0.01118027299969577 -0.03425992418995535 0.027532167380554584 -0.0021911268432898683 -0.02007868349969217 0.01986968223889181 -0.004324049629160244 -19.77163674983145 0.006135019393009677 0.025021343012011033 -0.0467034208670442 -0.018206939322681238 0.0020352741058268613 0.019396466069037537 -0.026403265543044622 0.020513540479937687 24.01523444790207 -0.020582537418003012 0.03276676611732719 28.897874533936683 0.018670188618011587 -0.04036123623658212 28.891306617035017 0.00782272562638816 -0.029033359935207254 14.626705430383888 3.2773684168851074 15.03182510546604 -77.75840497689077 1.1778574660764418 -37.31560617698725 -34.86222748412468 16.235347113003257 -108.29434181266217 -12.8800607192478 3.8553492694452802 -6.1782584183995235 -0.4722946236352735 0.049279674059074074 -8.080815681704868 0.04046465168970824 0.030882962889539504 44.53244837509628 0.006402453103198248 0.011826402235411666 44.58009237231775 12.42844948220559 0.01929680477294532 0.037291391138303175 -0.009364428486064131 0.023990152839531768 0.021168596076374016 0.006947227648897187 -0.002605295336249222 -0.044831991990299 11.14233736162932 -0.037399849602060775 0.03543333286920812 -0.018168529167864735 -0.04723518136933663 0.020111357351042216 0.022491879113480127 -0.03007787465763769 -0.008749586031652592 4.727355250257098 0.03801929491136528 -0.02433481953544432 0.030868906807750396 0.02121542984025647 -0.02385722946683883 -0.027568073767576657 -0.0019313109807821195 0.0167092541752122 -5.6100647226894145 -0.02485378248185145 0.020250480180175487 -6.690654111744068 -0.008907170752318477 -0.009715425276192761 -6.685645632107699 -0.03408089107620116 0.03499657428531853 0.00925366772277414 -0.010746173383778337 -0.03604023311145003 8.046535021706235 3.508551350703101 -19.239455293269696 -0.016914768875246126 10.435015283555241 0.043480584184188494 -5.654069179957486 -15.703700334179754 3.156684717067576 -0.028594729014404244 0.005793683906423173 0.016893636964938497 -0.024792677055540994 4.744331148755524 0.025230424675802138 12.439613621962108 -8.264813866188778 6.911887149930157 -0.04693273358947659 46.39680906780538 -0.014506946773976053 -4.362053843398697 -14.750343957638938 -3.813622668413091 -0.023795472846833237 -0.001229690906973118 -0.041100871670919754 -0.0063897009359321424 -10.725023586053478 -0.020275848046097462 
-0.04067932318850796 0.023680672562244418 0.044503561126145966 0.010250347891683543 -0.002854694732595347 0.04019969507263135 5.046054679805408 2.975757059302183 -2.2104881881851255 -0.7097382428098409 3.7687751848763487 0.36984687606593647 -0.6689181375161405 -1.6072914604949968 0.4433145855086694 -0.35938202272039915 -0.48985887199230504 -0.24870404025059217 0.11941101749591684 16.56272744737771 -2.894881752951038 0.3329086532019362 -0.6809031720481096 -5.90313354309926 1.2438412512202381 -18.199573805623142 -0.5265641358769284 -14.069451300429911 4.284723957721878 -17.94446598333253 83.58334086409306 -10.64561546186446 31.04674757754146 26.62185311590626 10.769511154118334 106.67388446737368 9.27938703099286 -0.2089239600197333 -0.539555546762308 4.574930827315492 -0.11643013478146849 -1.5888119855954732 0.014398487983944674 -0.015181581381930825 -56.23468693511282 0.002066556565589351 0.003583266510288049 -56.22283148445817 -38.77049534362678 0.03821309080664347 -0.03650417147542688 -0.04078806587697253 0.017473800777385563 -0.01890408343435232 0.018414608150249503 -0.030921479825531298 0.03422170993493123 -36.70171883828401 -0.01686862086926057 -0.015909841299750288 0.024578987087860067 -0.01320205360851211 0.01827664180883665 0.012296181729429052 -0.008614356670067807 -0.03688755601708656 -19.788015228431345 -0.0318940131177673 -0.0258918175360282 -0.009613154201528534 -0.026234596036965433 0.035053194106834364 -0.03268238150296 -0.031135543040376305 -0.031720039675454996 24.051820466055318 0.005896362423656989 -0.002450826238866458 28.893318468347793 0.01876128791169623 -0.03137590891516077 28.895087207431356 0.03977653351229951 0.03631127764709925 14.994212569977632 3.3162942850584933 14.956285103678859 -78.33208261707827 0.03510309491682454 -37.51038241309962 -41.17555012862506 16.7498967807102 -109.4539475702118 -12.155900862160154 3.2357768147639137 -5.182002611111835 -0.45977305008595437 0.03188886682636242 -8.128097861305765 -0.024544833873658824 -0.03414978734532173 44.55986846045548 -0.003202767062915767 0.0018102221675954406 44.61270844679201 12.483078504756971 -0.040726124556792025 -0.04780167406191453 -0.03907566934134496 0.012337608286179056 0.04587058627610871 0.007227778544055736 -0.04433099260824041 0.04341132132373389 11.11423870049062 0.03447989517528113 0.008539706173972886 0.01402931309114617 0.006229214252618408 0.04154739356561503 -0.046638202150389246 -0.008886267027202143 0.04683764767678193 4.781567051950302 -0.01996478052675852 -0.028319102218292355 0.017925112404793053 0.0008278610458089799 -0.004554315033332185 0.0413659243589603 0.018775315573779518 0.023090106868750557 -5.598518334716907 -0.006447594958451086 0.02585746044622557 -6.715221744759815 0.038158888752243734 -0.003390638482997314 -6.695944805888486 0.005096379325919277 0.04517685512348256 0.040712525958576024 0.0028258826750584003 -0.01083025378072288 7.999257478581205 3.4580465034982475 -19.259470276120116 -0.024088204211737622 10.374320780734996 0.006925515897777188 -5.668002977422678 -15.640169564042827 3.1635068594099813 -0.02422163764351321 0.031026155252796974 0.004807668625086214 0.028641524243597786 4.7247186088018625 -0.03585825439484448 12.492248799298652 -8.193927338296634 6.9222291130889415 0.03145867842518712 46.37495346838557 0.025960014386310213 -4.3366331428005 -14.736971182826757 -3.8740802365909204 -0.010636061151700783 0.03707622598968625 -0.03632674445977766 0.04143517017966588 -10.782876241689358 -0.005642869421874681 
0.029922771737163862 0.01938208450868603 0.049194427481768756 0.0019109813243374588 -0.01797031615521335 -0.03222323053560727 5.004429007701711 2.969550711420921 -2.1990112908864416 -0.6845032273386795 3.770847685259022 0.39230027117687843 -0.7008421599873542 -1.6448386491588938 0.3613969376550461 -0.42070556372785983 -0.4900646780313085 -0.32872578975794303 0.04476085568567995 16.358888276676492 -2.863879439116869 0.31209732454007 -0.6814135075390448 -5.8401838484106845 1.170479253463981 -18.257335078677777 -0.5503389697389172 -14.367926512140954 4.419710607178106 -17.97976913907209 84.73617753151194 -10.848593406653894 30.5722046769893 28.333146769938704 10.519230318293394 105.64652911165332 9.222486892431252 -0.23819680980919983 -0.9357952116739051 4.56852809080439 -0.08661357966029795 -1.5638954489869552 -0.03623938507360427 -0.0025267747883928483 -56.25601972382811 -0.012163163808555928 -0.013999533195156278 -56.2415420609972 -38.787062749662944 0.0464632676360893 -0.007860347232069652 0.005135104614424075 0.047023495333984776 0.017468049131126845 -0.013624281468645347 -0.021647216103722427 -0.003345279607260314 -36.65938806617253 0.028335440120545813 0.0256370391213851 0.008002974220516964 0.022383709713351796 0.005881283180491722 -0.03252304973889524 -0.015634026324259483 -0.04005057397691572 -19.7343721169814 0.03772417846201663 -0.0010886420364427992 -0.024665050620863285 0.03335918457503359 0.02417777033308369 -0.03393265151020153 0.04139846841747996 -0.0029283548187601415 24.053642980972576 -0.02168095856916226 0.0246930342656488 28.860047511745762 -0.014112319249479588 -0.012564022915101563 28.880114607369713 0.028178381604237114 -0.03665484080866426 15.280115172807509 3.3578006108974403 14.958568021783798 -78.69166152399218 -0.8611225139338616 -36.733505494705824 -46.11002430864664 16.530840787875466 -109.94889398795392 -11.569438661272414 2.6450832669688755 -4.321965696198681 -0.49606589921686933 0.07414929382159527 -8.119007487026067 -0.013196085839701563 -0.0057953289306395105 44.525868883615004 -0.026776233825909934 0.03723950106935011 44.598522790928975 12.474262693867493 0.001999035403561749 -0.022121186298032853 0.009305550505912556 -0.04404187920626618 0.01129418904247317 -0.030968587142164397 -0.014383453634868286 0.000585828775755607 11.109484902868866 0.04811442488116711 -0.044933449573178956 0.015302692315484923 0.02002546876163149 -0.03615633215032814 -0.005535850874453213 0.03678447813983202 -0.04294564711988522 4.76400967318296 -0.03448342360818142 -0.012083803886258926 0.03085381465744545 0.011684217679116808 0.004841937278616801 0.0457333973805024 0.006167009520160136 0.0043378489936394 -5.58754293433985 -0.007245686262150741 0.009789398466151159 -6.697861435233027 -0.00312248710348505 -0.010489957294128155 -6.730640746099492 0.04284585278361868 -0.036602737101350875 -0.004831403139924219 0.0018898394468625567 -0.006408839435556164 8.074477703978708 3.44942252439037 -19.249219337984538 0.04059603763942329 10.437847239614815 -0.005243347789387762 -5.653772455783143 -15.641614677725544 3.21466657358912 -0.04066048678164069 0.015398184188115123 -0.026447370056609524 -0.004734951958020033 4.6944472484267195 0.007356574100753667 12.440718030375827 -8.243248518865803 6.926035342298271 0.00013645714924694112 46.42608605564484 0.03283819573434746 -4.303773124312137 -14.769128277297327 -3.8591992717509105 0.014332125170243576 0.043379796800738876 -0.005164773431909118 0.04710594168338038 -10.742312593833926 0.013683922202001944 
-0.010469100048789187 0.02987819550474452 0.018073812135566282 -0.001094489726660693 0.04258925222452315 -0.03484663884333826 4.891959099908077 3.1643116159549347 -2.2355337243344686 -0.7331593971343495 3.7573308614678864 0.35904073514319673 -0.6394915671899098 -1.5559835160424025 0.3430949096278583 -0.4503843951966911 -0.45661231044786427 -0.29233510613889496 0.11581453141991369 16.024626119878537 -2.8507872014552325 0.34655106177885714 -0.7729169037387703 -5.914132915779992 1.2094224052373828 -18.338565977682926 -0.60195524944999 -14.397437723858646 4.39009824767218 -17.907745552917675 85.77577941456681 -10.744426643336736 30.19425826936831 29.260521048200097 9.914735173542478 104.89246542206342 9.292615774471907 -0.2863959625064185 -1.397298973203246 4.552908563290461 -0.1320970581246015 -1.5720831430744797 -0.005725275146178212 0.04559052308551816 -56.27595367150264 -0.046945899870602006 0.03561993591820096 -56.22631042904221 -38.79848625441334 -0.006792985800303623 -0.032955546178037295 0.04386190929607943 0.02103781277764887 0.00394718601793215 -0.023285836447469583 0.006964027651205149 -0.01123449527577644 -36.74299699109241 0.007996179556564804 -0.04044708398220373 -0.006127076903486402 -0.00021577624003559856 0.014950782707634589 0.03960285145520939 -0.012723633759494061 0.011092632108186447 -19.717861661673254 -0.026025224756491064 0.024081020598721373 -0.01613187738725593 0.03995035691866976 0.04427228382439828 0.04811318101923044 0.0042601030332523795 0.022639593679392757 24.062556226404464 -0.015621719013913096 0.044647598181284276 28.82576285083931 0.03719363274502612 -0.020839697080996738 28.894426448098944 0.028066599066459277 0.015115793802075228 15.121625747401131 3.3147797977847815 14.82425034426111 -79.1211801609082 -1.285138107652964 -35.68080964405899 -50.299121268895504 15.859520259087844 -110.0586472206649 -10.803439050742071 2.0516587380868687 -3.4020032432980347 -0.5195562476698072 0.03587887535464248 -8.088560072497057 0.04086582210333051 -0.031533724413590584 44.60837702328219 -0.0023209098492827963 -0.04373227296080987 44.53098487246879 12.508597395814801 -0.005301299007975897 0.00047637658416819644 0.04478679724841719 0.009346736282853287 -0.017654940300436274 -0.040542426629125036 0.0030726450131792113 0.000579989155849553 11.096539729083261 0.049629796585923466 -0.033585142499756505 0.0320136298836713 -0.030403874161125725 -0.034891540883903234 0.01939322237272256 -0.017729093839605595 -0.042898126276538114 4.784532358402478 -0.013346267075292463 -0.030719135237838337 -0.004368661399900785 -0.03181733423044368 0.005933998778515037 -0.003159198312395008 -0.018455001648611597 -0.014402303979075262 -5.638829718318052 0.0412778840529973 0.04518992054687515 -6.672804524428991 -0.02443969379881566 -0.03352270456064932 -6.756662301309557 0.030822661965176846 0.010595828402967357 0.027551582561961788 0.03307898752370111 -0.028685007603717658 8.06937682393795 3.4824053298224373 -19.244627241238053 0.04677018230295609 10.430421897839958 -0.02556203779314276 -5.618435932798372 -15.679721523982396 3.2171801193720317 -0.010969978730257261 -0.028222225193209157 0.017685284376586997 0.043196832500577494 4.707207321953019 -0.031153783309259615 12.418721435486832 -8.270766419845705 6.89556165734744 -0.039953884351952226 46.393692344124794 -0.03851602447002929 -4.281576302056902 -14.711182910912857 -3.8661553635763943 0.0049496256082062744 -0.021540870167121643 0.027557897154768286 -0.0030081465323911773 -10.74177711205833 -0.015279354585187721 
